<svg xmlns="http://www.w3.org/2000/svg"  viewBox="0 0 64 64" width="256px" height="256px"><g data-name="Fill Outline"><path fill="#f89c8d" d="M53.42,36.82A8.1,8.1,0,0,0,40,33.3h0a8.1,8.1,0,0,0-13.44,3.59,14,14,0,1,0,26.86-.07Z"/><path fill="#f8664f" d="M53.42,36.82a7.89,7.89,0,0,0-3.13-4.36,3.82,3.82,0,0,1,.13.36A14.16,14.16,0,0,1,36.31,51a13.8,13.8,0,0,1-8.78-3.78A14,14,0,0,0,53.42,36.82Z"/><path fill="#c4f236" d="M38,3h0A11,11,0,0,1,49,14v9a0,0,0,0,1,0,0h0A11,11,0,0,1,38,12V3A0,0,0,0,1,38,3Z"/><path fill="#a1d51c" d="M42.86,4.14A11,11,0,0,1,44,9v3a6,6,0,0,1-4.35,5.77A11,11,0,0,0,49,23V14A11,11,0,0,0,42.86,4.14Z"/><path fill="#f8664f" d="M37.42,42.82A8.1,8.1,0,0,0,24,39.3h0a8.1,8.1,0,0,0-13.44,3.59,14,14,0,1,0,26.86-.07Z"/><path fill="#cc5144" d="M37.42,42.82a7.89,7.89,0,0,0-3.13-4.36,3.82,3.82,0,0,1,.13.36A14.16,14.16,0,0,1,20.31,57a13.8,13.8,0,0,1-8.78-3.78A14,14,0,0,0,37.42,42.82Z"/><path fill="#cc5144" d="M26,41c0,1.1-1.34,2-3,2s-3-.9-3-2,1.34,0,3,0S26,39.9,26,41Z"/><path fill="#f8664f" d="M43,35c0,1.1-1.34,2-3,2s-3-.9-3-2,1.34,0,3,0S43,33.9,43,35Z"/><g data-name="Outline copy"><path fill="#39519d" d="M54.38,36.54A9.1,9.1,0,0,0,40,32a8,8,0,0,0-1-.68,31.2,31.2,0,0,1-2-23V12A12,12,0,0,0,49,24a1,1,0,0,0,1-1V14A12,12,0,0,0,38,2a1,1,0,0,0-.71.29L30.93,8.66a32.84,32.84,0,0,0-9.5,26.41l.57,6A1,1,0,0,0,23,42h.09A1,1,0,0,0,24,40.91l-.06-.62A1,1,0,0,0,24.7,40,7.1,7.1,0,0,1,36.46,43.1a13.27,13.27,0,0,1-3.55,13.33A12.81,12.81,0,0,1,23.35,60,13.14,13.14,0,0,1,11,47.34a13.36,13.36,0,0,1,.51-4.18A7.1,7.1,0,0,1,18.72,38a1,1,0,0,0,1.05-.95A1,1,0,0,0,18.82,36a9.12,9.12,0,0,0-9.22,6.6A15.17,15.17,0,0,0,23.26,62L24,62a14.79,14.79,0,0,0,10.28-4.13,15.07,15.07,0,0,0,4.71-11,15.23,15.23,0,0,0-.62-4.31,9.08,9.08,0,0,0-14.64-4.33l-.32-3.33a30.86,30.86,0,0,1,8.92-24.81l2.89-2.88a33.18,33.18,0,0,0,1.07,23,9,9,0,0,0-8,2.08,1,1,0,0,0,1.32,1.5,7.06,7.06,0,0,1,7.85-1,32,32,0,0,0,1.67,2.81,1,1,0,1,0,1.66-1.1l-.23-.37.1-.07A7.1,7.1,0,0,1,52.46,37.1,13.15,13.15,0,0,1,40.08,54a1,1,0,1,0,0,2h0A15.15,15.15,0,0,0,54.38,36.54ZM48,14v8A10,10,0,0,1,39,12V7.35A9.91,9.91,0,0,1,44,16a1,1,0,0,0,2,0A11.91,11.91,0,0,0,39,5.11V4.05A10,10,0,0,1,48,14Z"/></g></g></svg>