<svg xmlns="http://www.w3.org/2000/svg"  viewBox="0 0 48 48" width="256px" height="256px"><g data-name="3-orange"><circle cx="24" cy="28" r="19" fill="#f7941d"/><path fill="#ec6f1d" d="M10,33A18.99678,18.99678,0,0,1,39.69867,17.30133,18.99812,18.99812,0,1,0,13.30133,43.69867,18.90663,18.90663,0,0,1,10,33Z"/><path fill="#1ec951" d="M33,1h6a0,0,0,0,1,0,0V1a6,6,0,0,1-6,6H27a0,0,0,0,1,0,0V7A6,6,0,0,1,33,1Z"/><path fill="#00a14b" d="M35,3h3.65125A5.97555,5.97555,0,0,0,39,1H33a6,6,0,0,0-6,6h2.34875A5.997,5.997,0,0,1,35,3Z"/><path d="M25,8.05066V5a5.00588,5.00588,0,0,0-5-5H19V2h1a3.00328,3.00328,0,0,1,3,3V8.05066a20,20,0,1,0,2,0ZM24,46A18,18,0,1,1,42,28,18.02031,18.02031,0,0,1,24,46Z"/><path d="M27,8h6a7.00818,7.00818,0,0,0,7-7,.99974.99974,0,0,0-1-1H33a7.00818,7.00818,0,0,0-7,7A.99974.99974,0,0,0,27,8Zm6-6h4.89941A5.00854,5.00854,0,0,1,33,6H28.10059A5.00854,5.00854,0,0,1,33,2Z"/><rect width="2" height="2" x="19" y="14"/><rect width="2" height="2" x="33" y="38"/><rect width="2" height="2" x="28" y="41"/><rect width="2" height="2" x="28" y="35"/><rect width="2" height="2" x="23" y="38"/><path d="M10,22h2a6.00657,6.00657,0,0,1,6-6V14A8.00917,8.00917,0,0,0,10,22Z"/></g></svg>