<svg xmlns="http://www.w3.org/2000/svg"  viewBox="0 0 479.908 479.908" width="240px" height="240px"><path fill="#befa91" d="M466.984,327.278l-213.76-285.4c-6.63-8.85-19.91-8.85-26.54,0l-213.76,285.4	c-7.78,10.39-6.28,25.05,3.5,33.6c127.79,111.74,319.27,111.74,447.06,0C473.264,352.328,474.764,337.668,466.984,327.278z"/><path fill="#daffbf" d="M279.714,77.248c-4.9,0.06-9.771,2.28-13.03,6.63c-15.773,21.053-214.263,286.089-214.499,286.44	c-4.505,6.693-13.595,8.487-19.977,3.551c-5.36-4.146-10.624-8.477-15.784-12.991c-9.78-8.55-11.281-23.21-3.5-33.6	c5.919-7.903,202.768-270.726,213.76-285.4c6.63-8.85,19.91-8.85,26.54,0L279.714,77.248z"/><path fill="#ff6d7a" d="M253.224,41.878l182.57,243.75c-15.02,14.01-86.89,78.08-197.91,77.28	c-108.39-0.78-178.29-62.84-193.76-77.28l182.56-243.75C233.314,33.028,246.594,33.028,253.224,41.878z"/><path fill="#ff8c95" d="M267.131,60.448c5.199,6.942,4.918,16.409-0.349,23.301c-0.033,0.043-176.998,236.33-176.998,236.33	c-23.7-14.49-39.3-28.51-45.66-34.45l182.56-243.75c6.63-8.85,19.91-8.85,26.54,0L267.131,60.448z"/><path d="M473.386,322.479c-33.119-44.218-31.426-42.137-32.566-43.062c-3.117-2.526-7.587-2.332-10.481,0.353 c-91.078,84.507-229.772,102.291-342.357,29.724c-3.713-2.394-8.665-1.324-11.059,2.39c-2.394,3.713-1.324,8.664,2.39,11.059 c114.255,73.647,256.67,60.333,355.32-25.513l25.946,34.641c5.26,7.022,4.223,17.032-2.359,22.788 c-124.432,108.803-312.1,108.803-436.532,0c-6.583-5.756-7.619-15.766-2.359-22.788l213.76-285.396 c3.432-4.583,10.297-4.586,13.731,0l146.543,195.653c2.648,3.536,7.663,4.256,11.199,1.607s4.256-7.663,1.607-11.199 L259.626,37.084c-9.836-13.133-29.504-13.138-39.345,0L6.522,322.479c-10.246,13.68-8.21,33.193,4.634,44.425 c130.931,114.486,326.949,114.238,457.597,0C481.597,355.673,483.632,336.159,473.386,322.479z"/><path d="M247.954,111.121c0-4.418-3.582-8-8-8s-8,3.582-8,8v8.29c0,4.418,3.582,8,8,8s8-3.582,8-8V111.121z"/><path d="M196.146,173.291c0-4.418-3.582-8-8-8s-8,3.582-8,8v8.29c0,4.418,3.582,8,8,8s8-3.582,8-8V173.291z"/><path d="M299.762,173.291c0-4.418-3.582-8-8-8s-8,3.582-8,8v8.29c0,4.418,3.582,8,8,8s8-3.582,8-8V173.291z"/><path d="M188.146,299.992c-4.418,0-8,3.582-8,8v8.289c0,4.418,3.582,8,8,8s8-3.582,8-8v-8.289 C196.146,303.574,192.564,299.992,188.146,299.992z"/><path d="M291.762,299.992c-4.418,0-8,3.582-8,8v8.289c0,4.418,3.582,8,8,8s8-3.582,8-8v-8.289 C299.762,303.574,296.181,299.992,291.762,299.992z"/><path d="M128.338,247.895v8.29c0,4.418,3.582,8,8,8s8-3.582,8-8v-8.29c0-4.418-3.582-8-8-8S128.338,243.477,128.338,247.895z"/><path d="M335.57,247.895v8.29c0,4.418,3.582,8,8,8s8-3.582,8-8v-8.29c0-4.418-3.582-8-8-8S335.57,243.477,335.57,247.895z"/><path d="M239.954,229.533c-4.418,0-8,3.582-8,8v8.289c0,4.418,3.582,8,8,8s8-3.582,8-8v-8.289 C247.954,233.115,244.372,229.533,239.954,229.533z"/></svg>